<svg width="20" height="25" viewBox="0 0 40 50" fill="none" xmlns="http://www.w3.org/2000/svg"><path d="M.56 20.66C.56 11.45 5.41 4.3 12.73 1.4a19.39 19.39 0 0 1 21.16 4.54c5.47 5.66 7.58 14.48 3.6 21.17-4.47 7.54-10.1 14.4-15.47 21.37-.55.71-3.5.81-4 .16-5.52-7.26-10.93-14.61-16-22.19C.75 24.52.81 21.7.56 20.66ZM20 46.79c5.19-7.16 10.37-13.43 14.55-20.32 4-6.6 1.54-15.35-4.62-20.08a16.24 16.24 0 0 0-20.32.37c-6.15 5.1-8.22 13.56-4.06 20.16 4.16 6.6 9.26 12.83 14.45 19.87Z" fill="#000"/><path d="M19.93 27.89a9.31 9.31 0 0 1-9.31-9.05c-.08-5.31 4.07-9.27 9.57-9.14a9 9 0 0 1 9.07 9.17 9.29 9.29 0 0 1-9.33 9.02Zm-.56-15.18c-3.33.32-5.77 2.2-5.68 6.23.07 3.77 2.53 5.62 6.06 5.9a6.112 6.112 0 0 0 6.48-6c.06-3.57-2.66-6.17-6.86-6.13Z" fill="#000"/></svg>