<svg width="20" height="25" viewBox="0 0 40 50" fill="none" xmlns="http://www.w3.org/2000/svg">
<path d="M0.560059 20.6599C0.560059 11.4499 5.41007 4.29991 12.7301 1.39991C16.3089 -0.0323884 20.2334 -0.365474 24.0024 0.443188C27.7714 1.25185 31.2138 3.16556 33.8901 5.93992C39.3601 11.5999 41.4701 20.4199 37.4901 27.1099C33.0201 34.6499 27.39 41.5099 22.0201 48.4799C21.4701 49.1899 18.5201 49.2899 18.0201 48.6399C12.5001 41.3799 7.09005 34.0299 2.02005 26.4499C0.75005 24.5199 0.810059 21.6999 0.560059 20.6599ZM20.0001 46.7899C25.1901 39.6299 30.37 33.3599 34.55 26.4699C38.55 19.8699 36.0901 11.1199 29.9301 6.38993C27.0062 4.13079 23.3994 2.93622 19.705 3.00349C16.0107 3.07076 12.4497 4.39584 9.61005 6.75993C3.46005 11.8599 1.39005 20.3199 5.55005 26.9199C9.71005 33.5199 14.8101 39.7499 20.0001 46.7899Z" fill="black"/>
<path d="M19.9298 27.8904C17.505 27.8913 15.1755 26.9462 13.4369 25.2561C11.6982 23.5659 10.6875 21.2642 10.6198 18.8404C10.5398 13.5304 14.6898 9.57038 20.1898 9.70038C21.392 9.69081 22.584 9.92221 23.6953 10.3809C24.8066 10.8396 25.8147 11.5163 26.6602 12.3711C27.5056 13.2259 28.1712 14.2414 28.6177 15.3576C29.0642 16.4739 29.2826 17.6683 29.2598 18.8704C29.1894 21.2941 28.1741 23.5942 26.4309 25.2795C24.6876 26.9648 22.3545 27.9018 19.9298 27.8904V27.8904ZM19.3698 12.7104C16.0398 13.0304 13.5998 14.9104 13.6898 18.9404C13.7598 22.7104 16.2198 24.5604 19.7498 24.8404C20.5736 24.8904 21.3989 24.7731 22.1761 24.4955C22.9533 24.2178 23.6662 23.7856 24.2718 23.2249C24.8773 22.6642 25.363 21.9866 25.6996 21.2331C26.0361 20.4795 26.2165 19.6655 26.2298 18.8404C26.2898 15.2704 23.5698 12.6704 19.3698 12.7104Z" fill="black"/>
</svg>